<mxfile host="app.diagrams.net" modified="2021-02-23T09:45:43.453Z" agent="5.0 (Macintosh; Intel Mac OS X 10_14_6) AppleWebKit/537.36 (KHTML, like Gecko) Chrome/88.0.4324.182 Safari/537.36" etag="cA9HoeCQYlnuehrvVbBg" version="14.4.2" type="github">
  <diagram id="doO7QD25XSTSyCwF2JsC" name="Page-1">
    <mxGraphModel dx="946" dy="591" grid="1" gridSize="10" guides="1" tooltips="1" connect="1" arrows="1" fold="1" page="1" pageScale="1" pageWidth="827" pageHeight="1169" math="0" shadow="0">
      <root>
        <mxCell id="0" />
        <mxCell id="1" parent="0" />
        <mxCell id="Pw1JwfpGeaFqBJXXxSC6-7" value="支付网关" style="shape=umlLifeline;perimeter=lifelinePerimeter;whiteSpace=wrap;html=1;container=1;collapsible=0;recursiveResize=0;outlineConnect=0;" vertex="1" parent="1">
          <mxGeometry x="30" y="620" width="100" height="660" as="geometry" />
        </mxCell>
        <mxCell id="Pw1JwfpGeaFqBJXXxSC6-12" value="预下单" style="endArrow=block;endFill=1;html=1;edgeStyle=orthogonalEdgeStyle;align=left;verticalAlign=top;" edge="1" parent="Pw1JwfpGeaFqBJXXxSC6-7">
          <mxGeometry x="-1" relative="1" as="geometry">
            <mxPoint x="50" y="110" as="sourcePoint" />
            <mxPoint x="220" y="110" as="targetPoint" />
          </mxGeometry>
        </mxCell>
        <mxCell id="Pw1JwfpGeaFqBJXXxSC6-13" value="1" style="edgeLabel;resizable=0;html=1;align=left;verticalAlign=bottom;" connectable="0" vertex="1" parent="Pw1JwfpGeaFqBJXXxSC6-12">
          <mxGeometry x="-1" relative="1" as="geometry" />
        </mxCell>
        <mxCell id="Pw1JwfpGeaFqBJXXxSC6-8" value="支付核心" style="shape=umlLifeline;perimeter=lifelinePerimeter;whiteSpace=wrap;html=1;container=1;collapsible=0;recursiveResize=0;outlineConnect=0;" vertex="1" parent="1">
          <mxGeometry x="200" y="620" width="100" height="660" as="geometry" />
        </mxCell>
        <mxCell id="Pw1JwfpGeaFqBJXXxSC6-9" value="渠道" style="shape=umlLifeline;perimeter=lifelinePerimeter;whiteSpace=wrap;html=1;container=1;collapsible=0;recursiveResize=0;outlineConnect=0;" vertex="1" parent="1">
          <mxGeometry x="374" y="620" width="100" height="660" as="geometry" />
        </mxCell>
        <mxCell id="Pw1JwfpGeaFqBJXXxSC6-10" value="第三方" style="shape=umlLifeline;perimeter=lifelinePerimeter;whiteSpace=wrap;html=1;container=1;collapsible=0;recursiveResize=0;outlineConnect=0;" vertex="1" parent="1">
          <mxGeometry x="560" y="620" width="100" height="660" as="geometry" />
        </mxCell>
        <mxCell id="Pw1JwfpGeaFqBJXXxSC6-11" value="支付数据库" style="shape=umlLifeline;perimeter=lifelinePerimeter;whiteSpace=wrap;html=1;container=1;collapsible=0;recursiveResize=0;outlineConnect=0;" vertex="1" parent="1">
          <mxGeometry x="720" y="620" width="100" height="660" as="geometry" />
        </mxCell>
        <mxCell id="Pw1JwfpGeaFqBJXXxSC6-14" value="入参校验" style="endArrow=block;endFill=1;html=1;edgeStyle=orthogonalEdgeStyle;align=left;verticalAlign=top;" edge="1" parent="1" target="Pw1JwfpGeaFqBJXXxSC6-8">
          <mxGeometry x="-1" relative="1" as="geometry">
            <mxPoint x="250" y="750" as="sourcePoint" />
            <mxPoint x="310" y="810" as="targetPoint" />
            <Array as="points">
              <mxPoint x="310" y="750" />
              <mxPoint x="310" y="790" />
            </Array>
          </mxGeometry>
        </mxCell>
        <mxCell id="Pw1JwfpGeaFqBJXXxSC6-15" value="2" style="edgeLabel;resizable=0;html=1;align=left;verticalAlign=bottom;" connectable="0" vertex="1" parent="Pw1JwfpGeaFqBJXXxSC6-14">
          <mxGeometry x="-1" relative="1" as="geometry" />
        </mxCell>
        <mxCell id="Pw1JwfpGeaFqBJXXxSC6-19" value="" style="endArrow=block;dashed=1;endFill=0;endSize=12;html=1;" edge="1" parent="1" target="Pw1JwfpGeaFqBJXXxSC6-8">
          <mxGeometry width="160" relative="1" as="geometry">
            <mxPoint x="770" y="900" as="sourcePoint" />
            <mxPoint x="660" y="900" as="targetPoint" />
          </mxGeometry>
        </mxCell>
        <mxCell id="Pw1JwfpGeaFqBJXXxSC6-20" value="4. 不存在或者存在（非成功SUCCESS/已受理ACCEPTED）" style="text;html=1;align=center;verticalAlign=middle;resizable=0;points=[];autosize=1;" vertex="1" parent="1">
          <mxGeometry x="254" y="880" width="340" height="20" as="geometry" />
        </mxCell>
        <mxCell id="Pw1JwfpGeaFqBJXXxSC6-23" value="插入此单，并初始化 INIT=0" style="endArrow=block;endFill=1;html=1;edgeStyle=orthogonalEdgeStyle;align=left;verticalAlign=top;" edge="1" parent="1">
          <mxGeometry x="-1" relative="1" as="geometry">
            <mxPoint x="250" y="950" as="sourcePoint" />
            <mxPoint x="770" y="950" as="targetPoint" />
          </mxGeometry>
        </mxCell>
        <mxCell id="Pw1JwfpGeaFqBJXXxSC6-24" value="5" style="edgeLabel;resizable=0;html=1;align=left;verticalAlign=bottom;" connectable="0" vertex="1" parent="Pw1JwfpGeaFqBJXXxSC6-23">
          <mxGeometry x="-1" relative="1" as="geometry" />
        </mxCell>
        <mxCell id="Pw1JwfpGeaFqBJXXxSC6-26" value="查看数据库，有无此单" style="endArrow=block;endFill=1;html=1;edgeStyle=orthogonalEdgeStyle;align=left;verticalAlign=top;" edge="1" parent="1">
          <mxGeometry x="-1" relative="1" as="geometry">
            <mxPoint x="250" y="840" as="sourcePoint" />
            <mxPoint x="770" y="840" as="targetPoint" />
          </mxGeometry>
        </mxCell>
        <mxCell id="Pw1JwfpGeaFqBJXXxSC6-27" value="3" style="edgeLabel;resizable=0;html=1;align=left;verticalAlign=bottom;" connectable="0" vertex="1" parent="Pw1JwfpGeaFqBJXXxSC6-26">
          <mxGeometry x="-1" relative="1" as="geometry" />
        </mxCell>
        <mxCell id="Pw1JwfpGeaFqBJXXxSC6-28" value="调用渠道" style="endArrow=block;endFill=1;html=1;edgeStyle=orthogonalEdgeStyle;align=left;verticalAlign=top;" edge="1" parent="1">
          <mxGeometry x="-1" relative="1" as="geometry">
            <mxPoint x="250" y="1020" as="sourcePoint" />
            <mxPoint x="420" y="1020" as="targetPoint" />
          </mxGeometry>
        </mxCell>
        <mxCell id="Pw1JwfpGeaFqBJXXxSC6-29" value="6" style="edgeLabel;resizable=0;html=1;align=left;verticalAlign=bottom;" connectable="0" vertex="1" parent="Pw1JwfpGeaFqBJXXxSC6-28">
          <mxGeometry x="-1" relative="1" as="geometry" />
        </mxCell>
        <mxCell id="Pw1JwfpGeaFqBJXXxSC6-30" value="调用第三方" style="endArrow=block;endFill=1;html=1;edgeStyle=orthogonalEdgeStyle;align=left;verticalAlign=top;" edge="1" parent="1">
          <mxGeometry x="-1" relative="1" as="geometry">
            <mxPoint x="424" y="1050" as="sourcePoint" />
            <mxPoint x="610" y="1050" as="targetPoint" />
          </mxGeometry>
        </mxCell>
        <mxCell id="Pw1JwfpGeaFqBJXXxSC6-31" value="7" style="edgeLabel;resizable=0;html=1;align=left;verticalAlign=bottom;" connectable="0" vertex="1" parent="Pw1JwfpGeaFqBJXXxSC6-30">
          <mxGeometry x="-1" relative="1" as="geometry" />
        </mxCell>
        <mxCell id="Pw1JwfpGeaFqBJXXxSC6-32" value="" style="endArrow=block;dashed=1;endFill=0;endSize=12;html=1;" edge="1" parent="1" source="Pw1JwfpGeaFqBJXXxSC6-10" target="Pw1JwfpGeaFqBJXXxSC6-9">
          <mxGeometry width="160" relative="1" as="geometry">
            <mxPoint x="610.5" y="1100" as="sourcePoint" />
            <mxPoint x="90" y="1100" as="targetPoint" />
            <Array as="points">
              <mxPoint x="600" y="1110" />
            </Array>
          </mxGeometry>
        </mxCell>
        <mxCell id="Pw1JwfpGeaFqBJXXxSC6-33" value="8" style="text;html=1;align=center;verticalAlign=middle;resizable=0;points=[];autosize=1;" vertex="1" parent="1">
          <mxGeometry x="440" y="1090" width="20" height="20" as="geometry" />
        </mxCell>
        <mxCell id="Pw1JwfpGeaFqBJXXxSC6-34" value="成功" style="text;html=1;align=center;verticalAlign=middle;resizable=0;points=[];autosize=1;" vertex="1" parent="1">
          <mxGeometry x="430" y="1110" width="40" height="20" as="geometry" />
        </mxCell>
        <mxCell id="Pw1JwfpGeaFqBJXXxSC6-35" value="" style="endArrow=block;dashed=1;endFill=0;endSize=12;html=1;" edge="1" parent="1">
          <mxGeometry width="160" relative="1" as="geometry">
            <mxPoint x="420" y="1145" as="sourcePoint" />
            <mxPoint x="250" y="1145" as="targetPoint" />
            <Array as="points" />
          </mxGeometry>
        </mxCell>
        <mxCell id="Pw1JwfpGeaFqBJXXxSC6-36" value="9" style="text;html=1;align=center;verticalAlign=middle;resizable=0;points=[];autosize=1;" vertex="1" parent="1">
          <mxGeometry x="270.5" y="1125" width="20" height="20" as="geometry" />
        </mxCell>
        <mxCell id="Pw1JwfpGeaFqBJXXxSC6-37" value="成功" style="text;html=1;align=center;verticalAlign=middle;resizable=0;points=[];autosize=1;" vertex="1" parent="1">
          <mxGeometry x="260.5" y="1145" width="40" height="20" as="geometry" />
        </mxCell>
        <mxCell id="Pw1JwfpGeaFqBJXXxSC6-40" value="修改此单状态为已受理 ACCEPTED" style="endArrow=block;endFill=1;html=1;edgeStyle=orthogonalEdgeStyle;align=left;verticalAlign=top;" edge="1" parent="1">
          <mxGeometry x="-1" relative="1" as="geometry">
            <mxPoint x="250" y="1200" as="sourcePoint" />
            <mxPoint x="770" y="1200" as="targetPoint" />
          </mxGeometry>
        </mxCell>
        <mxCell id="Pw1JwfpGeaFqBJXXxSC6-41" value="10" style="edgeLabel;resizable=0;html=1;align=left;verticalAlign=bottom;" connectable="0" vertex="1" parent="Pw1JwfpGeaFqBJXXxSC6-40">
          <mxGeometry x="-1" relative="1" as="geometry" />
        </mxCell>
        <mxCell id="Pw1JwfpGeaFqBJXXxSC6-42" value="" style="endArrow=block;dashed=1;endFill=0;endSize=12;html=1;" edge="1" parent="1">
          <mxGeometry width="160" relative="1" as="geometry">
            <mxPoint x="250" y="1250" as="sourcePoint" />
            <mxPoint x="83.5" y="1250" as="targetPoint" />
            <Array as="points" />
          </mxGeometry>
        </mxCell>
        <mxCell id="Pw1JwfpGeaFqBJXXxSC6-43" value="11" style="edgeLabel;html=1;align=center;verticalAlign=middle;resizable=0;points=[];" vertex="1" connectable="0" parent="Pw1JwfpGeaFqBJXXxSC6-42">
          <mxGeometry x="0.7778" y="-11" relative="1" as="geometry">
            <mxPoint as="offset" />
          </mxGeometry>
        </mxCell>
        <mxCell id="Pw1JwfpGeaFqBJXXxSC6-44" value="预下单成功" style="text;html=1;align=center;verticalAlign=middle;resizable=0;points=[];autosize=1;" vertex="1" parent="1">
          <mxGeometry x="90" y="1250" width="80" height="20" as="geometry" />
        </mxCell>
        <mxCell id="Pw1JwfpGeaFqBJXXxSC6-46" value="" style="ellipse;html=1;shape=startState;fillColor=#000000;strokeColor=#ff0000;" vertex="1" parent="1">
          <mxGeometry x="398.5" y="150" width="30" height="30" as="geometry" />
        </mxCell>
        <mxCell id="Pw1JwfpGeaFqBJXXxSC6-47" value="" style="edgeStyle=orthogonalEdgeStyle;html=1;verticalAlign=bottom;endArrow=open;endSize=8;strokeColor=#ff0000;" edge="1" source="Pw1JwfpGeaFqBJXXxSC6-46" parent="1">
          <mxGeometry relative="1" as="geometry">
            <mxPoint x="413.5" y="240" as="targetPoint" />
          </mxGeometry>
        </mxCell>
        <mxCell id="Pw1JwfpGeaFqBJXXxSC6-48" value="&lt;font style=&quot;font-size: 18px&quot;&gt;支付单创建状态机流转&lt;/font&gt;" style="text;html=1;align=center;verticalAlign=middle;resizable=0;points=[];autosize=1;" vertex="1" parent="1">
          <mxGeometry x="320.5" y="100" width="200" height="20" as="geometry" />
        </mxCell>
        <mxCell id="Pw1JwfpGeaFqBJXXxSC6-49" value="业务请求" style="text;html=1;align=center;verticalAlign=middle;resizable=0;points=[];autosize=1;" vertex="1" parent="1">
          <mxGeometry x="419.5" y="200" width="60" height="20" as="geometry" />
        </mxCell>
        <mxCell id="Pw1JwfpGeaFqBJXXxSC6-50" value="初始化INIT" style="html=1;" vertex="1" parent="1">
          <mxGeometry x="372.5" y="240" width="82" height="40" as="geometry" />
        </mxCell>
        <mxCell id="Pw1JwfpGeaFqBJXXxSC6-58" style="edgeStyle=orthogonalEdgeStyle;rounded=0;orthogonalLoop=1;jettySize=auto;html=1;exitX=0;exitY=0.5;exitDx=0;exitDy=0;entryX=0.5;entryY=0;entryDx=0;entryDy=0;" edge="1" parent="1" source="Pw1JwfpGeaFqBJXXxSC6-51" target="Pw1JwfpGeaFqBJXXxSC6-57">
          <mxGeometry relative="1" as="geometry" />
        </mxCell>
        <mxCell id="Pw1JwfpGeaFqBJXXxSC6-61" style="edgeStyle=orthogonalEdgeStyle;rounded=0;orthogonalLoop=1;jettySize=auto;html=1;exitX=1;exitY=0.5;exitDx=0;exitDy=0;entryX=1;entryY=0.5;entryDx=0;entryDy=0;" edge="1" parent="1" source="Pw1JwfpGeaFqBJXXxSC6-51" target="Pw1JwfpGeaFqBJXXxSC6-54">
          <mxGeometry relative="1" as="geometry">
            <Array as="points">
              <mxPoint x="520" y="360" />
              <mxPoint x="520" y="485" />
            </Array>
          </mxGeometry>
        </mxCell>
        <mxCell id="Pw1JwfpGeaFqBJXXxSC6-51" value="CODE=0" style="rhombus;whiteSpace=wrap;html=1;" vertex="1" parent="1">
          <mxGeometry x="374.5" y="320" width="80" height="80" as="geometry" />
        </mxCell>
        <mxCell id="Pw1JwfpGeaFqBJXXxSC6-52" value="" style="endArrow=classic;html=1;entryX=0.5;entryY=0;entryDx=0;entryDy=0;exitX=0.5;exitY=1;exitDx=0;exitDy=0;" edge="1" parent="1" source="Pw1JwfpGeaFqBJXXxSC6-50" target="Pw1JwfpGeaFqBJXXxSC6-51">
          <mxGeometry width="50" height="50" relative="1" as="geometry">
            <mxPoint x="400.5" y="320" as="sourcePoint" />
            <mxPoint x="450.5" y="270" as="targetPoint" />
          </mxGeometry>
        </mxCell>
        <mxCell id="Pw1JwfpGeaFqBJXXxSC6-54" value="" style="ellipse;html=1;shape=endState;fillColor=#000000;strokeColor=#ff0000;" vertex="1" parent="1">
          <mxGeometry x="399" y="470" width="30" height="30" as="geometry" />
        </mxCell>
        <mxCell id="Pw1JwfpGeaFqBJXXxSC6-55" value="调用渠道" style="text;html=1;align=center;verticalAlign=middle;resizable=0;points=[];autosize=1;" vertex="1" parent="1">
          <mxGeometry x="420" y="290" width="60" height="20" as="geometry" />
        </mxCell>
        <mxCell id="Pw1JwfpGeaFqBJXXxSC6-59" style="edgeStyle=orthogonalEdgeStyle;rounded=0;orthogonalLoop=1;jettySize=auto;html=1;entryX=0;entryY=0.5;entryDx=0;entryDy=0;exitX=0.5;exitY=1;exitDx=0;exitDy=0;" edge="1" parent="1" source="Pw1JwfpGeaFqBJXXxSC6-57" target="Pw1JwfpGeaFqBJXXxSC6-54">
          <mxGeometry relative="1" as="geometry" />
        </mxCell>
        <mxCell id="Pw1JwfpGeaFqBJXXxSC6-57" value="已受理ACCEPTED=5" style="html=1;" vertex="1" parent="1">
          <mxGeometry x="190" y="410" width="142" height="40" as="geometry" />
        </mxCell>
        <mxCell id="Pw1JwfpGeaFqBJXXxSC6-60" value="Y" style="text;html=1;align=center;verticalAlign=middle;resizable=0;points=[];autosize=1;" vertex="1" parent="1">
          <mxGeometry x="280" y="340" width="20" height="20" as="geometry" />
        </mxCell>
        <mxCell id="Pw1JwfpGeaFqBJXXxSC6-62" value="N" style="text;html=1;align=center;verticalAlign=middle;resizable=0;points=[];autosize=1;" vertex="1" parent="1">
          <mxGeometry x="480" y="340" width="20" height="20" as="geometry" />
        </mxCell>
        <mxCell id="Pw1JwfpGeaFqBJXXxSC6-63" value="&lt;h3 id=&quot;id-2.1.0.4支付系统UML图-1.1.2支付单创建业务流程图&quot; style=&quot;margin: 30px 0px 0px ; padding: 0px ; color: rgb(51 , 51 , 51) ; font-size: 16px ; line-height: 1.5 ; font-family: &amp;#34;arial&amp;#34; , sans-serif ; background-color: rgb(255 , 255 , 255)&quot;&gt;支付单创建业务流程图&lt;/h3&gt;" style="text;html=1;align=center;verticalAlign=middle;resizable=0;points=[];autosize=1;" vertex="1" parent="1">
          <mxGeometry x="320" y="530" width="180" height="60" as="geometry" />
        </mxCell>
        <mxCell id="Pw1JwfpGeaFqBJXXxSC6-64" value="&lt;font style=&quot;font-size: 24px&quot;&gt;一、支付单创建&lt;/font&gt;" style="text;html=1;align=center;verticalAlign=middle;resizable=0;points=[];autosize=1;" vertex="1" parent="1">
          <mxGeometry x="10" y="40" width="180" height="20" as="geometry" />
        </mxCell>
        <mxCell id="Pw1JwfpGeaFqBJXXxSC6-65" value="&lt;font style=&quot;font-size: 24px&quot;&gt;二、支付回调&lt;/font&gt;" style="text;html=1;align=center;verticalAlign=middle;resizable=0;points=[];autosize=1;" vertex="1" parent="1">
          <mxGeometry x="20" y="1330" width="160" height="20" as="geometry" />
        </mxCell>
        <mxCell id="Pw1JwfpGeaFqBJXXxSC6-68" value="" style="ellipse;html=1;shape=startState;fillColor=#000000;strokeColor=#ff0000;" vertex="1" parent="1">
          <mxGeometry x="414" y="1420" width="30" height="30" as="geometry" />
        </mxCell>
        <mxCell id="Pw1JwfpGeaFqBJXXxSC6-69" value="" style="edgeStyle=orthogonalEdgeStyle;html=1;verticalAlign=bottom;endArrow=open;endSize=8;strokeColor=#ff0000;" edge="1" source="Pw1JwfpGeaFqBJXXxSC6-68" parent="1">
          <mxGeometry relative="1" as="geometry">
            <mxPoint x="429" y="1510" as="targetPoint" />
          </mxGeometry>
        </mxCell>
        <mxCell id="Pw1JwfpGeaFqBJXXxSC6-70" value="渠道回调支付" style="text;html=1;align=center;verticalAlign=middle;resizable=0;points=[];autosize=1;" vertex="1" parent="1">
          <mxGeometry x="440" y="1460" width="90" height="20" as="geometry" />
        </mxCell>
        <mxCell id="Pw1JwfpGeaFqBJXXxSC6-73" style="edgeStyle=orthogonalEdgeStyle;rounded=0;orthogonalLoop=1;jettySize=auto;html=1;exitX=0;exitY=0.5;exitDx=0;exitDy=0;entryX=0;entryY=0.5;entryDx=0;entryDy=0;" edge="1" parent="1" source="Pw1JwfpGeaFqBJXXxSC6-71" target="Pw1JwfpGeaFqBJXXxSC6-72">
          <mxGeometry relative="1" as="geometry">
            <Array as="points">
              <mxPoint x="290" y="1560" />
              <mxPoint x="290" y="1759" />
            </Array>
          </mxGeometry>
        </mxCell>
        <mxCell id="Pw1JwfpGeaFqBJXXxSC6-76" style="edgeStyle=orthogonalEdgeStyle;rounded=0;orthogonalLoop=1;jettySize=auto;html=1;exitX=1;exitY=0.5;exitDx=0;exitDy=0;" edge="1" parent="1" source="Pw1JwfpGeaFqBJXXxSC6-71" target="Pw1JwfpGeaFqBJXXxSC6-75">
          <mxGeometry relative="1" as="geometry" />
        </mxCell>
        <mxCell id="Pw1JwfpGeaFqBJXXxSC6-71" value="判断状态&lt;br&gt;PAY_SUCCESS:10&lt;br&gt;/ PAY_FAILURE:15&lt;br&gt;/ CLOSED:20" style="rhombus;whiteSpace=wrap;html=1;" vertex="1" parent="1">
          <mxGeometry x="335.75" y="1510" width="186.5" height="100" as="geometry" />
        </mxCell>
        <mxCell id="Pw1JwfpGeaFqBJXXxSC6-72" value="" style="ellipse;html=1;shape=endState;fillColor=#000000;strokeColor=#ff0000;" vertex="1" parent="1">
          <mxGeometry x="414" y="1744" width="30" height="30" as="geometry" />
        </mxCell>
        <mxCell id="Pw1JwfpGeaFqBJXXxSC6-74" value="Y" style="text;html=1;align=center;verticalAlign=middle;resizable=0;points=[];autosize=1;" vertex="1" parent="1">
          <mxGeometry x="290" y="1540" width="20" height="20" as="geometry" />
        </mxCell>
        <mxCell id="Pw1JwfpGeaFqBJXXxSC6-77" style="edgeStyle=orthogonalEdgeStyle;rounded=0;orthogonalLoop=1;jettySize=auto;html=1;exitX=0.5;exitY=1;exitDx=0;exitDy=0;entryX=1;entryY=0.5;entryDx=0;entryDy=0;" edge="1" parent="1" source="Pw1JwfpGeaFqBJXXxSC6-75" target="Pw1JwfpGeaFqBJXXxSC6-72">
          <mxGeometry relative="1" as="geometry" />
        </mxCell>
        <mxCell id="Pw1JwfpGeaFqBJXXxSC6-75" value="&lt;span&gt;修改状态为&lt;br&gt;PAY_SUCCESS:10&lt;/span&gt;&lt;br&gt;&lt;span&gt;/ PAY_FAILURE:15&lt;/span&gt;&lt;br&gt;&lt;span&gt;/ CLOSED:20&lt;/span&gt;" style="html=1;" vertex="1" parent="1">
          <mxGeometry x="560" y="1620" width="130" height="60" as="geometry" />
        </mxCell>
        <mxCell id="Pw1JwfpGeaFqBJXXxSC6-78" value="N" style="text;html=1;align=center;verticalAlign=middle;resizable=0;points=[];autosize=1;" vertex="1" parent="1">
          <mxGeometry x="570" y="1540" width="20" height="20" as="geometry" />
        </mxCell>
        <mxCell id="Pw1JwfpGeaFqBJXXxSC6-79" value="&lt;font style=&quot;font-size: 18px&quot;&gt;支付单创建状态机流转&lt;/font&gt;" style="text;html=1;align=center;verticalAlign=middle;resizable=0;points=[];autosize=1;" vertex="1" parent="1">
          <mxGeometry x="329" y="1360" width="200" height="20" as="geometry" />
        </mxCell>
        <mxCell id="Pw1JwfpGeaFqBJXXxSC6-80" value="&lt;font style=&quot;font-size: 18px&quot;&gt;支付回调流程图&lt;/font&gt;" style="text;html=1;align=center;verticalAlign=middle;resizable=0;points=[];autosize=1;" vertex="1" parent="1">
          <mxGeometry x="350" y="1810" width="140" height="20" as="geometry" />
        </mxCell>
        <mxCell id="Pw1JwfpGeaFqBJXXxSC6-81" value="渠道" style="shape=umlLifeline;perimeter=lifelinePerimeter;whiteSpace=wrap;html=1;container=1;collapsible=0;recursiveResize=0;outlineConnect=0;" vertex="1" parent="1">
          <mxGeometry x="25.5" y="1870" width="100" height="460" as="geometry" />
        </mxCell>
        <mxCell id="Pw1JwfpGeaFqBJXXxSC6-82" value="渠道回调" style="endArrow=block;endFill=1;html=1;edgeStyle=orthogonalEdgeStyle;align=left;verticalAlign=top;" edge="1" parent="Pw1JwfpGeaFqBJXXxSC6-81">
          <mxGeometry x="-1" relative="1" as="geometry">
            <mxPoint x="50" y="110" as="sourcePoint" />
            <mxPoint x="220" y="110" as="targetPoint" />
          </mxGeometry>
        </mxCell>
        <mxCell id="Pw1JwfpGeaFqBJXXxSC6-83" value="1" style="edgeLabel;resizable=0;html=1;align=left;verticalAlign=bottom;" connectable="0" vertex="1" parent="Pw1JwfpGeaFqBJXXxSC6-82">
          <mxGeometry x="-1" relative="1" as="geometry" />
        </mxCell>
        <mxCell id="Pw1JwfpGeaFqBJXXxSC6-84" value="支付核心" style="shape=umlLifeline;perimeter=lifelinePerimeter;whiteSpace=wrap;html=1;container=1;collapsible=0;recursiveResize=0;outlineConnect=0;" vertex="1" parent="1">
          <mxGeometry x="195.5" y="1870" width="100" height="460" as="geometry" />
        </mxCell>
        <mxCell id="Pw1JwfpGeaFqBJXXxSC6-85" value="清分" style="shape=umlLifeline;perimeter=lifelinePerimeter;whiteSpace=wrap;html=1;container=1;collapsible=0;recursiveResize=0;outlineConnect=0;" vertex="1" parent="1">
          <mxGeometry x="470" y="1870" width="100" height="460" as="geometry" />
        </mxCell>
        <mxCell id="Pw1JwfpGeaFqBJXXxSC6-87" value="支付数据库" style="shape=umlLifeline;perimeter=lifelinePerimeter;whiteSpace=wrap;html=1;container=1;collapsible=0;recursiveResize=0;outlineConnect=0;" vertex="1" parent="1">
          <mxGeometry x="715.5" y="1870" width="100" height="460" as="geometry" />
        </mxCell>
        <mxCell id="Pw1JwfpGeaFqBJXXxSC6-88" value="入参校验" style="endArrow=block;endFill=1;html=1;edgeStyle=orthogonalEdgeStyle;align=left;verticalAlign=top;" edge="1" parent="1" target="Pw1JwfpGeaFqBJXXxSC6-84">
          <mxGeometry x="-1" relative="1" as="geometry">
            <mxPoint x="245.5" y="2000" as="sourcePoint" />
            <mxPoint x="305.5" y="2060" as="targetPoint" />
            <Array as="points">
              <mxPoint x="305.5" y="2000" />
              <mxPoint x="305.5" y="2040" />
            </Array>
          </mxGeometry>
        </mxCell>
        <mxCell id="Pw1JwfpGeaFqBJXXxSC6-89" value="2" style="edgeLabel;resizable=0;html=1;align=left;verticalAlign=bottom;" connectable="0" vertex="1" parent="Pw1JwfpGeaFqBJXXxSC6-88">
          <mxGeometry x="-1" relative="1" as="geometry" />
        </mxCell>
        <mxCell id="Pw1JwfpGeaFqBJXXxSC6-90" value="" style="endArrow=block;dashed=1;endFill=0;endSize=12;html=1;" edge="1" parent="1" target="Pw1JwfpGeaFqBJXXxSC6-84">
          <mxGeometry width="160" relative="1" as="geometry">
            <mxPoint x="765.5" y="2150" as="sourcePoint" />
            <mxPoint x="655.5" y="2150" as="targetPoint" />
          </mxGeometry>
        </mxCell>
        <mxCell id="Pw1JwfpGeaFqBJXXxSC6-91" value="4. 返回ACCEPTED" style="text;html=1;align=center;verticalAlign=middle;resizable=0;points=[];autosize=1;" vertex="1" parent="1">
          <mxGeometry x="359.5" y="2130" width="120" height="20" as="geometry" />
        </mxCell>
        <mxCell id="Pw1JwfpGeaFqBJXXxSC6-92" value="将 ACCEPTED 修改为终态" style="endArrow=block;endFill=1;html=1;edgeStyle=orthogonalEdgeStyle;align=left;verticalAlign=top;" edge="1" parent="1">
          <mxGeometry x="-1" relative="1" as="geometry">
            <mxPoint x="245.5" y="2200" as="sourcePoint" />
            <mxPoint x="765.5" y="2200" as="targetPoint" />
          </mxGeometry>
        </mxCell>
        <mxCell id="Pw1JwfpGeaFqBJXXxSC6-93" value="5" style="edgeLabel;resizable=0;html=1;align=left;verticalAlign=bottom;" connectable="0" vertex="1" parent="Pw1JwfpGeaFqBJXXxSC6-92">
          <mxGeometry x="-1" relative="1" as="geometry" />
        </mxCell>
        <mxCell id="Pw1JwfpGeaFqBJXXxSC6-94" value="查看数据库，此单的状态" style="endArrow=block;endFill=1;html=1;edgeStyle=orthogonalEdgeStyle;align=left;verticalAlign=top;" edge="1" parent="1">
          <mxGeometry x="-1" relative="1" as="geometry">
            <mxPoint x="245.5" y="2090" as="sourcePoint" />
            <mxPoint x="765.5" y="2090" as="targetPoint" />
          </mxGeometry>
        </mxCell>
        <mxCell id="Pw1JwfpGeaFqBJXXxSC6-95" value="3" style="edgeLabel;resizable=0;html=1;align=left;verticalAlign=bottom;" connectable="0" vertex="1" parent="Pw1JwfpGeaFqBJXXxSC6-94">
          <mxGeometry x="-1" relative="1" as="geometry" />
        </mxCell>
        <mxCell id="Pw1JwfpGeaFqBJXXxSC6-96" value="通知清分系统" style="endArrow=block;endFill=1;html=1;edgeStyle=orthogonalEdgeStyle;align=left;verticalAlign=top;" edge="1" parent="1">
          <mxGeometry x="-1" relative="1" as="geometry">
            <mxPoint x="245.5" y="2270" as="sourcePoint" />
            <mxPoint x="520" y="2270" as="targetPoint" />
          </mxGeometry>
        </mxCell>
        <mxCell id="Pw1JwfpGeaFqBJXXxSC6-97" value="6" style="edgeLabel;resizable=0;html=1;align=left;verticalAlign=bottom;" connectable="0" vertex="1" parent="Pw1JwfpGeaFqBJXXxSC6-96">
          <mxGeometry x="-1" relative="1" as="geometry" />
        </mxCell>
        <mxCell id="Pw1JwfpGeaFqBJXXxSC6-108" value="" style="endArrow=block;dashed=1;endFill=0;endSize=12;html=1;" edge="1" parent="1">
          <mxGeometry width="160" relative="1" as="geometry">
            <mxPoint x="245.5" y="2310" as="sourcePoint" />
            <mxPoint x="79" y="2310" as="targetPoint" />
            <Array as="points" />
          </mxGeometry>
        </mxCell>
        <mxCell id="Pw1JwfpGeaFqBJXXxSC6-109" value="11" style="edgeLabel;html=1;align=center;verticalAlign=middle;resizable=0;points=[];" vertex="1" connectable="0" parent="Pw1JwfpGeaFqBJXXxSC6-108">
          <mxGeometry x="0.7778" y="-11" relative="1" as="geometry">
            <mxPoint as="offset" />
          </mxGeometry>
        </mxCell>
        <mxCell id="Pw1JwfpGeaFqBJXXxSC6-110" value="预下单成功" style="text;html=1;align=center;verticalAlign=middle;resizable=0;points=[];autosize=1;" vertex="1" parent="1">
          <mxGeometry x="100" y="2290" width="80" height="20" as="geometry" />
        </mxCell>
      </root>
    </mxGraphModel>
  </diagram>
</mxfile>
